<svg width="223" height="165" viewBox="0 0 223 165" fill="none" xmlns="http://www.w3.org/2000/svg">
<path opacity="0.15" d="M170.757 44.7098C163.695 18.9509 139.821 0 111.451 0C77.5143 0 50.0132 27.1026 50.0132 60.5255C50.0132 60.7743 50.0334 61.0132 50.0334 61.2521C21.4917 64.6163 0.0020752 79.1978 0.0020752 96.6955C0.0020752 106.967 7.42798 116.234 19.3296 122.823C18.5921 125.281 18.188 127.829 18.188 130.457C18.188 149.099 37.859 164.218 62.1372 164.218C77.6356 164.218 91.2548 158.047 99.0747 148.741C112.138 158.366 129.344 164.218 148.207 164.218C189.044 164.218 222.153 136.817 222.153 103.006C222.153 75.7141 200.572 52.6027 170.757 44.7098Z" fill="#C6C6C6"/>
</svg>
