<svg width="303" height="298" viewBox="0 0 303 298" fill="none" xmlns="http://www.w3.org/2000/svg">
<g clip-path="url(#clip0_1_29)">
<path d="M222.188 225.942C177.888 265.761 110.142 263.637 70.8743 221.198C31.6067 178.758 35.6869 112.073 79.9877 72.2535C124.289 32.4338 192.034 34.5579 231.302 76.9977C270.569 119.438 266.489 186.122 222.188 225.942Z" fill="#F472B7"/>
<path d="M105.978 129.984C108.633 132.853 109.693 129.478 112.688 126.787C115.682 124.095 119.482 123.11 116.823 120.236C114.164 117.362 109.589 117.223 106.594 119.915C103.595 122.602 103.319 127.11 105.978 129.984Z" fill="white"/>
<path d="M85.2558 148.61C87.9102 151.479 88.9707 148.105 91.9653 145.413C94.96 142.721 98.7599 141.736 96.1007 138.862C93.4415 135.988 88.8665 135.85 85.8719 138.541C82.8725 141.228 82.5966 145.736 85.2558 148.61Z" fill="white"/>
<path d="M102.745 157.316C107.93 162.92 116.878 163.201 122.728 157.942C128.578 152.684 129.117 143.876 123.932 138.272C118.746 132.667 119.549 142.925 113.698 148.183C107.848 153.442 97.559 151.711 102.745 157.316Z" fill="white"/>
</g>
<defs>
<clipPath id="clip0_1_29">
<rect width="215.709" height="209.383" fill="white" transform="matrix(-0.74372 0.668491 0.679143 0.734006 160.54 0)"/>
</clipPath>
</defs>
</svg>
